<svg xmlns="http://www.w3.org/2000/svg" xmlns:xlink="http://www.w3.org/1999/xlink" viewBox="0 0 721.72 247.88"><defs><style>.cls-1{fill:#fff;}.cls-2{mask:url(#mask);}.cls-3{stroke:#000;stroke-miterlimit:10;stroke-width:0.25px;fill:url(#新建渐变色板_1);}</style><mask id="mask" x="-0.17" y="-0.07" width="721.89" height="248.2" maskUnits="userSpaceOnUse"><polygon class="cls-1" points="163.88 150.39 49.42 -0.07 -0.17 -0.07 -0.17 244.3 52.87 244.3 52.87 88.95 171.22 244.3 216.94 244.3 216.94 -0.07 163.88 -0.07 163.88 150.39"/><polygon class="cls-1" points="364.94 98.03 306.64 -0.07 243.79 -0.07 337.68 147.94 337.68 244.3 391.46 244.3 391.46 146.91 485.33 -0.07 424.27 -0.07 364.94 98.03"/><path class="cls-1" d="M667.55-.07v140c0,38.71-19.93,58.63-52.72,58.63s-52.69-20.6-52.69-60.39V-.07H508.37V139.56c0,71.92,40.14,108.56,105.73,108.56s107.18-36.32,107.18-110.3V-.07Z"/></mask><linearGradient id="新建渐变色板_1" x1="0.13" y1="123.94" x2="721.59" y2="123.94" gradientUnits="userSpaceOnUse"><stop offset="0" stop-color="#9ed110"/><stop offset="0.02" stop-color="#95ce11"/><stop offset="0.05" stop-color="#7bc413"/><stop offset="0.09" stop-color="#52b617"/><stop offset="0.09" stop-color="#50b517"/><stop offset="0.18" stop-color="#179067"/><stop offset="0.27" stop-color="#476eaf"/><stop offset="0.36" stop-color="#9f49ac"/><stop offset="0.45" stop-color="#cc42a2"/><stop offset="0.55" stop-color="#ff3ba7"/><stop offset="0.64" stop-color="#ff5800"/><stop offset="0.73" stop-color="#ff8100"/><stop offset="0.82" stop-color="#feac00"/><stop offset="0.91" stop-color="#fc0"/><stop offset="0.99" stop-color="#ede604"/></linearGradient></defs><title>资源 3</title><g id="图层_2" data-name="图层 2"><g id="图层_1-2" data-name="图层 1"><g class="cls-2"><rect class="cls-3" x="0.13" y="0.13" width="721.47" height="247.63"/></g></g></g></svg>